<?xml version="1.0" standalone="no"?>
<!DOCTYPE svg PUBLIC "-//W3C//DTD SVG 20010904//EN"
 "http://www.w3.org/TR/2001/REC-SVG-20010904/DTD/svg10.dtd">
<svg version="1.0" xmlns="http://www.w3.org/2000/svg"
 width="160.000000pt" height="160.000000pt" viewBox="0 0 160.000000 160.000000"
 preserveAspectRatio="xMidYMid meet">
<metadata>
Created by potrace 1.11, written by Peter Selinger 2001-2013
</metadata>
<g transform="translate(0.000000,160.000000) scale(0.100000,-0.100000)"
fill="#000000" stroke="none">
<path d="M486 1575 c-74 -26 -111 -90 -139 -245 -19 -108 -13 -305 12 -421 5
-21 6 -41 2 -46 -3 -6 -44 -20 -91 -32 -114 -29 -127 -35 -143 -68 -13 -27
-15 -138 -4 -205 3 -16 8 -47 12 -70 9 -57 69 -237 96 -290 69 -137 149 -207
202 -179 24 13 46 42 52 70 2 9 8 30 13 46 11 37 13 253 2 301 -10 42 -2 43
30 2 94 -119 302 -253 439 -283 11 -3 31 -8 44 -11 37 -9 135 -6 195 7 32 7
59 13 62 14 28 4 114 58 152 95 60 58 64 91 16 117 -44 23 -96 42 -136 49 -65
11 -198 75 -262 125 -105 83 -190 198 -204 274 -8 44 -10 131 -3 142 9 14 53
8 123 -18 99 -36 146 -77 263 -226 110 -140 211 -198 211 -122 0 36 -35 109
-114 237 -99 160 -181 232 -290 257 -52 12 -89 6 -156 -28 -29 -14 -29 -14
-100 -71 -60 -49 -62 -48 -73 20 -3 16 -13 65 -21 109 -20 98 -25 139 -31 235
-7 114 -20 154 -67 196 -33 30 -49 33 -92 19z"/>
</g>
</svg>
