<?xml version="1.0" standalone="no"?>
<!DOCTYPE svg PUBLIC "-//W3C//DTD SVG 20010904//EN"
 "http://www.w3.org/TR/2001/REC-SVG-20010904/DTD/svg10.dtd">
<svg version="1.0" xmlns="http://www.w3.org/2000/svg"
 width="1246.000000pt" height="1246.000000pt" viewBox="0 0 1246.000000 1246.000000"
 preserveAspectRatio="xMidYMid meet">
<metadata>
Created by potrace 1.11, written by Peter Selinger 2001-2013
</metadata>
<g transform="translate(0.000000,1246.000000) scale(0.100000,-0.100000)"
fill="#000000" stroke="none">
<path d="M5925 12453 c-534 -32 -967 -105 -1444 -243 -759 -219 -1525 -618
-2146 -1118 -265 -213 -634 -571 -846 -822 -997 -1177 -1519 -2638 -1486
-4160 11 -509 63 -904 182 -1385 552 -2237 2318 -3998 4560 -4545 544 -133
1048 -189 1605 -177 509 11 904 63 1385 182 2237 552 3998 2318 4545 4560 133
544 189 1048 177 1605 -11 509 -63 904 -182 1385 -240 975 -705 1857 -1382
2625 -142 160 -462 475 -623 611 -1150 975 -2583 1499 -4065 1487 -126 -1
-252 -3 -280 -5z m640 -1003 c1039 -69 2028 -440 2845 -1069 371 -285 740
-660 1021 -1036 801 -1075 1155 -2426 988 -3765 -177 -1418 -921 -2692 -2074
-3550 -1252 -933 -2859 -1253 -4385 -874 -1490 371 -2752 1393 -3430 2779
-869 1777 -656 3909 549 5475 273 356 650 730 998 993 626 471 1355 800 2108
952 251 50 459 77 765 98 109 8 478 6 615 -3z"/>
<path d="M4472 8670 c-253 -46 -475 -242 -559 -495 -23 -70 -26 -96 -27 -215
0 -122 3 -143 28 -215 44 -127 90 -201 185 -295 95 -94 175 -142 301 -181 62
-20 97 -24 200 -24 142 0 222 19 345 83 96 50 237 191 287 287 65 126 83 202
82 350 0 115 -3 139 -28 210 -43 124 -90 201 -180 290 -142 140 -285 203 -476
210 -58 2 -129 0 -158 -5z"/>
<path d="M7732 8670 c-253 -46 -475 -242 -559 -495 -23 -70 -26 -96 -27 -215
0 -122 3 -143 28 -215 44 -127 90 -201 185 -295 95 -94 175 -142 301 -181 62
-20 97 -24 200 -24 142 0 222 19 345 83 96 50 237 191 287 287 65 126 83 202
82 350 0 115 -3 139 -28 210 -43 124 -90 201 -180 290 -142 140 -285 203 -476
210 -58 2 -129 0 -158 -5z"/>
<path d="M3797 5649 c-100 -24 -203 -104 -246 -192 -37 -76 -38 -154 -6 -272
171 -631 689 -1182 1396 -1483 280 -120 597 -203 934 -243 161 -20 605 -17
769 4 397 53 727 151 1051 312 409 203 749 494 979 839 162 242 295 586 283
733 -9 118 -83 219 -202 274 -242 114 -527 -40 -641 -344 -122 -326 -286 -549
-549 -747 -370 -278 -819 -420 -1325 -420 -598 0 -1139 208 -1510 581 -156
158 -254 309 -344 533 -65 160 -97 214 -170 290 -114 117 -275 169 -419 135z"/>
</g>
</svg>
