<svg class="bouncing-smiley bouncing-smiley--happy" width="623" height="623" viewBox="0 0 623 623" fill="none" xmlns="http://www.w3.org/2000/svg">
  <circle cx="311.5" cy="311.5" r="286.5" stroke="black" stroke-width="50"/>
  <path d="M429.3 340C440.732 340 450.226 349.386 447.623 360.518C442.523 382.326 429.366 402.575 409.581 418.489C383.701 439.305 348.6 451 312 451C275.4 451 240.299 439.305 214.419 418.489C194.634 402.575 181.477 382.326 176.377 360.518C173.774 349.386 183.268 340 194.7 340C206.132 340 215.114 349.499 218.766 360.332C223.14 373.309 231.668 385.269 243.693 394.942C261.81 409.514 286.38 417.7 312 417.7C337.62 417.7 362.191 409.514 380.307 394.942C392.332 385.269 400.86 373.309 405.234 360.332C408.886 349.499 417.868 340 429.3 340Z" fill="black"/>
  <circle cx="393" cy="225" r="36" fill="black"/>
  <circle cx="230" cy="225" r="36" fill="black"/>
</svg>
