<svg class="bouncing-smiley bouncing-smiley--sad" width="623" height="623" viewBox="0 0 623 623" fill="none" xmlns="http://www.w3.org/2000/svg">
  <circle cx="311.5" cy="311.5" r="286.5" stroke="black" stroke-width="50"/>
  <path d="M193.7 451C182.268 451 172.774 441.614 175.377 430.482C180.477 408.674 193.634 388.425 213.419 372.511C239.299 351.695 274.4 340 311 340C347.6 340 382.701 351.695 408.581 372.511C428.366 388.425 441.523 408.674 446.623 430.482C449.226 441.614 439.732 451 428.3 451C416.868 451 407.886 441.501 404.234 430.668C399.86 417.691 391.332 405.731 379.307 396.058C361.191 381.486 336.62 373.3 311 373.3C285.38 373.3 260.81 381.486 242.693 396.058C230.668 405.731 222.14 417.691 217.766 430.668C214.114 441.501 205.132 451 193.7 451Z" fill="black"/>
  <circle cx="393" cy="225" r="36" fill="black"/>
  <circle cx="230" cy="225" r="36" fill="black"/>
</svg>
